<svg xmlns="http://www.w3.org/2000/svg" width="512" height="512" viewBox="0 0 512 512" fill="none">
  <defs>
    <linearGradient id="gD" x1="0" y1="0" x2="1" y2="0">
      <stop offset="0" stop-color="#00E5A8"/>
      <stop offset="1" stop-color="#00C0A0"/>
    </linearGradient>
  </defs>

  <!-- Microphone body -->
  <rect x="168" y="72" width="176" height="256" rx="88" fill="#0B2B45"/>
  <!-- Microphone grille -->
  <g stroke="#FFFFFF" stroke-width="10" stroke-linecap="round">
    <path d="M214 140h84"/>
    <path d="M214 174h84"/>
    <path d="M214 208h84"/>
  </g>

  <!-- Sound waves left -->
  <g stroke="url(#gD)" stroke-width="8" fill="none" stroke-linecap="round">
    <path d="M136 120c8-14 20-26 36-34"/>
    <path d="M148 150c6-10 14-18 24-24"/>
    <path d="M160 180c4-6 8-10 14-14"/>
  </g>

  <!-- Transition to nib -->
  <path d="M256 328 L256 328c-28 48-28 64-28 64h-4l32 56 32-56h-4s0-16-28-64z" fill="#0B2B45"/>

  <!-- Nib detail -->
  <path d="M256 384 L236 420 L276 420 Z" fill="#0B2B45"/>
  <circle cx="256" cy="400" r="8" fill="#0B2B45"/>
</svg>
